# xmcd
#
# Track frame offsets:
#	183
#	14140
#	26635
#	39328
#	51785
#	63410
#	75475
#	88548
#	100230
#	113248
#	133448
#	143970
#	157515
#	171185
#	182795
#	193360
#	205838
#	220385
#	235285
#	251490
#
# Disc length: 3536 seconds
#
# Revision: 0
# Processed by: cddbd v1.4PL0 Copyright (c) Steve Scherf et al.
# Submitted via: dBpowerAMP V4.0
#
DISCID=1f0dce14
DTITLE=Etta James - Something's Got A Hold
DYEAR=1900
DGENRE=
TTITLE0=I Just Want To Make Love To You
TTITLE1=If I Can't Have You
TTITLE2=Spoonful
TTITLE3=Something's Got A Hold On Me
TTITLE4=Street Of Tears
TTITLE5=Stop The Wedding
TTITLE6=Pushover
TTITLE7=Pay Back
TTITLE8=Two Sides (To Every Story)
TTITLE9=Baby What You Want Me To Do
TTITLE10=In The Basement (Part 1)
TTITLE11=Do I Make Myself Clear
TTITLE12=I Prefer You
TTITLE13=I'd Rather Go Blind
TTITLE14=Tell Mama
TTITLE15=Security
TTITLE16=W.O.M.A.N
TTITLE17=You Can Leave Your Hat On
TTITLE18=God's Song (That's Why I Love Mankind)
TTITLE19=Gonna Have Some Fun Tonight
EXTD=Charly R&B Masters Vol 3
EXTT0=
EXTT1=
EXTT2=
EXTT3=
EXTT4=
EXTT5=
EXTT6=
EXTT7=
EXTT8=
EXTT9=
EXTT10=
EXTT11=
EXTT12=
EXTT13=
EXTT14=
EXTT15=
EXTT16=
EXTT17=
EXTT18=
EXTT19=
PLAYORDER=
